<?xml version="1.0" encoding="UTF-8"?>
<svg xmlns="http://www.w3.org/2000/svg" width="1400" height="900" viewBox="0 0 1400 900" role="img" aria-label="Banking System OOP Class Diagram">
  <rect width="1400" height="900" fill="#F8FAFC"/>
  <rect x="70" y="70" width="1260" height="760" rx="34" fill="#FFFFFF" stroke="#D7E1EA" stroke-width="3"/>
  <rect x="70" y="70" width="1260" height="86" rx="34" fill="#0B1120"/>
  <circle cx="118" cy="113" r="12" fill="#F87171"/><circle cx="154" cy="113" r="12" fill="#FBBF24"/><circle cx="190" cy="113" r="12" fill="#34D399"/>
  <text x="700" y="124" text-anchor="middle" font-family="Inter, Arial, sans-serif" font-size="30" font-weight="800" fill="#FFFFFF">Banking System OOP Class Diagram</text>
  
  
  <rect x="535" y="220" width="330" height="120" rx="24" fill="#ECFEFF" stroke="#A5F3FC" stroke-width="2"/>
  <text x="563" y="265" font-family="Inter, Arial, sans-serif" font-size="25" font-weight="800" fill="#111827">Bank</text>
  <text x="563" y="308" font-family="Inter, Arial, sans-serif" font-size="21" fill="#475569">owns accounts</text><text x="563" y="342" font-family="Inter, Arial, sans-serif" font-size="21" fill="#475569">routes operations</text>
  
  <path d="M700 350 L700 440" stroke="#06B6D4" stroke-width="5" stroke-linecap="round"/>
  <path d="M682 427 L700 440 L682 453" fill="none" stroke="#06B6D4" stroke-width="5" stroke-linecap="round" stroke-linejoin="round"/>
  
  <rect x="510" y="455" width="380" height="125" rx="24" fill="#FFFFFF" stroke="#D7E1EA" stroke-width="2"/>
  <text x="538" y="500" font-family="Inter, Arial, sans-serif" font-size="25" font-weight="800" fill="#111827">BankAccount</text>
  <text x="538" y="543" font-family="Inter, Arial, sans-serif" font-size="21" fill="#475569">account number</text><text x="538" y="577" font-family="Inter, Arial, sans-serif" font-size="21" fill="#475569">balance</text><text x="538" y="611" font-family="Inter, Arial, sans-serif" font-size="21" fill="#475569">deposit / withdraw</text>
  
  <path d="M620 590 L430 665" stroke="#06B6D4" stroke-width="5" stroke-linecap="round"/>
  <path d="M412 652 L430 665 L412 678" fill="none" stroke="#06B6D4" stroke-width="5" stroke-linecap="round" stroke-linejoin="round"/>
  
  <path d="M780 590 L970 665" stroke="#06B6D4" stroke-width="5" stroke-linecap="round"/>
  <path d="M952 652 L970 665 L952 678" fill="none" stroke="#06B6D4" stroke-width="5" stroke-linecap="round" stroke-linejoin="round"/>
  
  <rect x="210" y="670" width="360" height="110" rx="24" fill="#F8FAFC" stroke="#D7E1EA" stroke-width="2"/>
  <text x="238" y="715" font-family="Inter, Arial, sans-serif" font-size="25" font-weight="800" fill="#111827">CheckingAccount</text>
  <text x="238" y="758" font-family="Inter, Arial, sans-serif" font-size="21" fill="#475569">checking-specific behavior</text>
  
  <rect x="830" y="670" width="360" height="110" rx="24" fill="#F8FAFC" stroke="#D7E1EA" stroke-width="2"/>
  <text x="858" y="715" font-family="Inter, Arial, sans-serif" font-size="25" font-weight="800" fill="#111827">SavingsAccount</text>
  <text x="858" y="758" font-family="Inter, Arial, sans-serif" font-size="21" fill="#475569">savings-specific behavior</text>
  <rect x="98" y="778" width="220" height="28" rx="14" fill="#06B6D4" opacity=".16"/>
  <text x="118" y="798" font-family="Inter, Arial, sans-serif" font-size="18" font-weight="700" fill="#06B6D4">Grounded project visual</text>
</svg>