<?xml version="1.0" encoding="UTF-8"?>
<svg xmlns="http://www.w3.org/2000/svg" width="1400" height="900" viewBox="0 0 1400 900" role="img" aria-label="CampusStudy AI RAG Flow">
  <rect width="1400" height="900" fill="#F8FAFC"/>
  <rect x="70" y="70" width="1260" height="760" rx="34" fill="#FFFFFF" stroke="#D7E1EA" stroke-width="3"/>
  <rect x="70" y="70" width="1260" height="86" rx="34" fill="#0B1120"/>
  <circle cx="118" cy="113" r="12" fill="#F87171"/><circle cx="154" cy="113" r="12" fill="#FBBF24"/><circle cx="190" cy="113" r="12" fill="#34D399"/>
  <text x="700" y="124" text-anchor="middle" font-family="Inter, Arial, sans-serif" font-size="30" font-weight="800" fill="#FFFFFF">CampusStudy AI RAG Flow</text>
  
  
  <rect x="118" y="260" width="220" height="150" rx="24" fill="#ECFEFF" stroke="#A5F3FC" stroke-width="2"/>
  <text x="146" y="305" font-family="Inter, Arial, sans-serif" font-size="25" font-weight="800" fill="#111827">Input</text>
  <text x="146" y="348" font-family="Inter, Arial, sans-serif" font-size="21" fill="#475569">Notes</text><text x="146" y="382" font-family="Inter, Arial, sans-serif" font-size="21" fill="#475569">Slides</text><text x="146" y="416" font-family="Inter, Arial, sans-serif" font-size="21" fill="#475569">Questions</text>
  
  <path d="M350 335 L456 335" stroke="#06B6D4" stroke-width="5" stroke-linecap="round"/>
  <path d="M438 322 L456 335 L438 348" fill="none" stroke="#06B6D4" stroke-width="5" stroke-linecap="round" stroke-linejoin="round"/>
  
  <rect x="470" y="260" width="230" height="150" rx="24" fill="#FFFFFF" stroke="#D7E1EA" stroke-width="2"/>
  <text x="498" y="305" font-family="Inter, Arial, sans-serif" font-size="25" font-weight="800" fill="#111827">Chunking</text>
  <text x="498" y="348" font-family="Inter, Arial, sans-serif" font-size="21" fill="#475569">Clean text</text><text x="498" y="382" font-family="Inter, Arial, sans-serif" font-size="21" fill="#475569">Split sections</text>
  
  <path d="M712 335 L818 335" stroke="#06B6D4" stroke-width="5" stroke-linecap="round"/>
  <path d="M800 322 L818 335 L800 348" fill="none" stroke="#06B6D4" stroke-width="5" stroke-linecap="round" stroke-linejoin="round"/>
  
  <rect x="832" y="260" width="230" height="150" rx="24" fill="#FFFFFF" stroke="#D7E1EA" stroke-width="2"/>
  <text x="860" y="305" font-family="Inter, Arial, sans-serif" font-size="25" font-weight="800" fill="#111827">Retrieval</text>
  <text x="860" y="348" font-family="Inter, Arial, sans-serif" font-size="21" fill="#475569">Find course</text><text x="860" y="382" font-family="Inter, Arial, sans-serif" font-size="21" fill="#475569">context</text>
  
  <path d="M1074 335 L1180 335" stroke="#06B6D4" stroke-width="5" stroke-linecap="round"/>
  <path d="M1162 322 L1180 335 L1162 348" fill="none" stroke="#06B6D4" stroke-width="5" stroke-linecap="round" stroke-linejoin="round"/>
  
  <rect x="1188" y="260" width="112" height="150" rx="24" fill="#FFFFFF" stroke="#D7E1EA" stroke-width="2"/>
  <text x="1216" y="305" font-family="Inter, Arial, sans-serif" font-size="25" font-weight="800" fill="#111827">AI</text>
  <text x="1216" y="348" font-family="Inter, Arial, sans-serif" font-size="21" fill="#475569">Answer</text>
  
  <rect x="250" y="535" width="900" height="140" rx="24" fill="#F8FAFC" stroke="#D7E1EA" stroke-width="2"/>
  <text x="278" y="580" font-family="Inter, Arial, sans-serif" font-size="25" font-weight="800" fill="#111827">Grounded Study Output</text>
  <text x="278" y="623" font-family="Inter, Arial, sans-serif" font-size="21" fill="#475569">Generated answers keep a visible path back to the student's academic content.</text>
  <rect x="98" y="778" width="220" height="28" rx="14" fill="#06B6D4" opacity=".16"/>
  <text x="118" y="798" font-family="Inter, Arial, sans-serif" font-size="18" font-weight="700" fill="#06B6D4">Grounded project visual</text>
</svg>