<?xml version="1.0" encoding="UTF-8"?>
<svg xmlns="http://www.w3.org/2000/svg" width="1400" height="900" viewBox="0 0 1400 900" role="img" aria-label="CampusStudy AI Dashboard">
  <rect width="1400" height="900" fill="#F8FAFC"/>
  <rect x="70" y="70" width="1260" height="760" rx="34" fill="#FFFFFF" stroke="#D7E1EA" stroke-width="3"/>
  <rect x="70" y="70" width="1260" height="86" rx="34" fill="#0B1120"/>
  <circle cx="118" cy="113" r="12" fill="#F87171"/><circle cx="154" cy="113" r="12" fill="#FBBF24"/><circle cx="190" cy="113" r="12" fill="#34D399"/>
  <text x="700" y="124" text-anchor="middle" font-family="Inter, Arial, sans-serif" font-size="30" font-weight="800" fill="#FFFFFF">CampusStudy AI Dashboard</text>
  
  <text x="118" y="230" font-family="Inter, Arial, sans-serif" font-size="42" font-weight="900" fill="#111827">Study Workspace</text>
  <text x="118" y="270" font-family="Inter, Arial, sans-serif" font-size="22" fill="#64748B">Courses, materials, notes, quizzes, flashcards, chat, and study guides in one academic surface.</text>
  
  <rect x="118" y="320" width="360" height="190" rx="24" fill="#ECFEFF" stroke="#A5F3FC" stroke-width="2"/>
  <text x="146" y="365" font-family="Inter, Arial, sans-serif" font-size="25" font-weight="800" fill="#111827">AI Assistant</text>
  <text x="146" y="408" font-family="Inter, Arial, sans-serif" font-size="21" fill="#475569">Ask citation-grounded questions</text><text x="146" y="442" font-family="Inter, Arial, sans-serif" font-size="21" fill="#475569">Use uploaded course context</text>
  
  <rect x="520" y="320" width="360" height="190" rx="24" fill="#FFFFFF" stroke="#D7E1EA" stroke-width="2"/>
  <text x="548" y="365" font-family="Inter, Arial, sans-serif" font-size="25" font-weight="800" fill="#111827">Generated Assets</text>
  <text x="548" y="408" font-family="Inter, Arial, sans-serif" font-size="21" fill="#475569">Notes and summaries</text><text x="548" y="442" font-family="Inter, Arial, sans-serif" font-size="21" fill="#475569">Flashcards and quizzes</text>
  
  <rect x="922" y="320" width="290" height="190" rx="24" fill="#FFFFFF" stroke="#D7E1EA" stroke-width="2"/>
  <text x="950" y="365" font-family="Inter, Arial, sans-serif" font-size="25" font-weight="800" fill="#111827">Course Context</text>
  <text x="950" y="408" font-family="Inter, Arial, sans-serif" font-size="21" fill="#475569">Notes</text><text x="950" y="442" font-family="Inter, Arial, sans-serif" font-size="21" fill="#475569">Materials</text><text x="950" y="476" font-family="Inter, Arial, sans-serif" font-size="21" fill="#475569">Citations</text>
  
  <rect x="118" y="555" width="1094" height="150" rx="24" fill="#F8FAFC" stroke="#D7E1EA" stroke-width="2"/>
  <text x="146" y="600" font-family="Inter, Arial, sans-serif" font-size="25" font-weight="800" fill="#111827">Recent Workflow</text>
  <text x="146" y="643" font-family="Inter, Arial, sans-serif" font-size="21" fill="#475569">Upload material -&gt; extract/transcribe -&gt; chunk/embed -&gt; generate notes / flashcards / quizzes</text>
  <rect x="760" y="596" width="380" height="18" rx="9" fill="#CBD5E1"/>
  <rect x="760" y="596" width="265" height="18" rx="9" fill="#06B6D4"/>
  <rect x="98" y="778" width="220" height="28" rx="14" fill="#06B6D4" opacity=".16"/>
  <text x="118" y="798" font-family="Inter, Arial, sans-serif" font-size="18" font-weight="700" fill="#06B6D4">Grounded project visual</text>
</svg>
