<?xml version="1.0" encoding="UTF-8"?>
<svg xmlns="http://www.w3.org/2000/svg" width="1400" height="900" viewBox="0 0 1400 900" role="img" aria-label="CampusStudy AI Worker Pipeline">
  <rect width="1400" height="900" fill="#F8FAFC"/>
  <rect x="70" y="70" width="1260" height="760" rx="34" fill="#FFFFFF" stroke="#D7E1EA" stroke-width="3"/>
  <rect x="70" y="70" width="1260" height="86" rx="34" fill="#0B1120"/>
  <circle cx="118" cy="113" r="12" fill="#F87171"/><circle cx="154" cy="113" r="12" fill="#FBBF24"/><circle cx="190" cy="113" r="12" fill="#34D399"/>
  <text x="700" y="124" text-anchor="middle" font-family="Inter, Arial, sans-serif" font-size="30" font-weight="800" fill="#FFFFFF">CampusStudy AI Worker Pipeline</text>
  
  
  <rect x="130" y="260" width="250" height="150" rx="24" fill="#ECFEFF" stroke="#A5F3FC" stroke-width="2"/>
  <text x="158" y="305" font-family="Inter, Arial, sans-serif" font-size="25" font-weight="800" fill="#111827">Web / Mobile</text>
  <text x="158" y="348" font-family="Inter, Arial, sans-serif" font-size="21" fill="#475569">Study request</text><text x="158" y="382" font-family="Inter, Arial, sans-serif" font-size="21" fill="#475569">Material upload</text>
  
  <path d="M396 335 L500 335" stroke="#06B6D4" stroke-width="5" stroke-linecap="round"/>
  <path d="M482 322 L500 335 L482 348" fill="none" stroke="#06B6D4" stroke-width="5" stroke-linecap="round" stroke-linejoin="round"/>
  
  <rect x="514" y="260" width="250" height="150" rx="24" fill="#FFFFFF" stroke="#D7E1EA" stroke-width="2"/>
  <text x="542" y="305" font-family="Inter, Arial, sans-serif" font-size="25" font-weight="800" fill="#111827">FastAPI</text>
  <text x="542" y="348" font-family="Inter, Arial, sans-serif" font-size="21" fill="#475569">Routes</text><text x="542" y="382" font-family="Inter, Arial, sans-serif" font-size="21" fill="#475569">Validation</text>
  
  <path d="M780 335 L884 335" stroke="#06B6D4" stroke-width="5" stroke-linecap="round"/>
  <path d="M866 322 L884 335 L866 348" fill="none" stroke="#06B6D4" stroke-width="5" stroke-linecap="round" stroke-linejoin="round"/>
  
  <rect x="898" y="260" width="250" height="150" rx="24" fill="#FFFFFF" stroke="#D7E1EA" stroke-width="2"/>
  <text x="926" y="305" font-family="Inter, Arial, sans-serif" font-size="25" font-weight="800" fill="#111827">Workers</text>
  <text x="926" y="348" font-family="Inter, Arial, sans-serif" font-size="21" fill="#475569">Extraction</text><text x="926" y="382" font-family="Inter, Arial, sans-serif" font-size="21" fill="#475569">Generation</text>
  
  <rect x="322" y="525" width="330" height="150" rx="24" fill="#F8FAFC" stroke="#D7E1EA" stroke-width="2"/>
  <text x="350" y="570" font-family="Inter, Arial, sans-serif" font-size="25" font-weight="800" fill="#111827">Study Data</text>
  <text x="350" y="613" font-family="Inter, Arial, sans-serif" font-size="21" fill="#475569">Courses</text><text x="350" y="647" font-family="Inter, Arial, sans-serif" font-size="21" fill="#475569">Materials</text><text x="350" y="681" font-family="Inter, Arial, sans-serif" font-size="21" fill="#475569">Notes</text>
  
  <rect x="744" y="525" width="330" height="150" rx="24" fill="#F8FAFC" stroke="#D7E1EA" stroke-width="2"/>
  <text x="772" y="570" font-family="Inter, Arial, sans-serif" font-size="25" font-weight="800" fill="#111827">AI Provider</text>
  <text x="772" y="613" font-family="Inter, Arial, sans-serif" font-size="21" fill="#475569">RAG prompt</text><text x="772" y="647" font-family="Inter, Arial, sans-serif" font-size="21" fill="#475569">Study output</text>
  
  <path d="M640 440 L520 525" stroke="#06B6D4" stroke-width="5" stroke-linecap="round"/>
  <path d="M502 512 L520 525 L502 538" fill="none" stroke="#06B6D4" stroke-width="5" stroke-linecap="round" stroke-linejoin="round"/>
  
  <path d="M900 440 L900 525" stroke="#06B6D4" stroke-width="5" stroke-linecap="round"/>
  <path d="M882 512 L900 525 L882 538" fill="none" stroke="#06B6D4" stroke-width="5" stroke-linecap="round" stroke-linejoin="round"/>
  <rect x="98" y="778" width="220" height="28" rx="14" fill="#06B6D4" opacity=".16"/>
  <text x="118" y="798" font-family="Inter, Arial, sans-serif" font-size="18" font-weight="700" fill="#06B6D4">Grounded project visual</text>
</svg>