<?xml version="1.0" encoding="UTF-8"?>
<svg xmlns="http://www.w3.org/2000/svg" width="1400" height="900" viewBox="0 0 1400 900" role="img" aria-label="Memory Address Breakdown">
  <rect width="1400" height="900" fill="#F8FAFC"/>
  <rect x="70" y="70" width="1260" height="760" rx="34" fill="#FFFFFF" stroke="#D7E1EA" stroke-width="3"/>
  <rect x="70" y="70" width="1260" height="86" rx="34" fill="#0B1120"/>
  <circle cx="118" cy="113" r="12" fill="#F87171"/><circle cx="154" cy="113" r="12" fill="#FBBF24"/><circle cx="190" cy="113" r="12" fill="#34D399"/>
  <text x="700" y="124" text-anchor="middle" font-family="Inter, Arial, sans-serif" font-size="30" font-weight="800" fill="#FFFFFF">Memory Address Breakdown</text>
  
  <rect x="160" y="330" width="1080" height="150" rx="24" fill="#0B1120"/>
  <rect x="200" y="365" width="330" height="80" rx="18" fill="#06B6D4"/>
  <rect x="550" y="365" width="330" height="80" rx="18" fill="#38BDF8"/>
  <rect x="900" y="365" width="290" height="80" rx="18" fill="#A5F3FC"/>
  <text x="365" y="415" text-anchor="middle" font-family="Inter, Arial, sans-serif" font-size="27" font-weight="900" fill="#082F49">TAG</text>
  <text x="715" y="415" text-anchor="middle" font-family="Inter, Arial, sans-serif" font-size="27" font-weight="900" fill="#082F49">INDEX</text>
  <text x="1045" y="415" text-anchor="middle" font-family="Inter, Arial, sans-serif" font-size="27" font-weight="900" fill="#082F49">OFFSET</text>
  
  <rect x="250" y="575" width="900" height="115" rx="24" fill="#F8FAFC" stroke="#D7E1EA" stroke-width="2"/>
  <text x="278" y="620" font-family="Inter, Arial, sans-serif" font-size="25" font-weight="800" fill="#111827">Lookup Flow</text>
  <text x="278" y="663" font-family="Inter, Arial, sans-serif" font-size="21" fill="#475569">Parse address -&gt; choose set -&gt; compare tag -&gt; update LRU and statistics</text>
  <rect x="98" y="778" width="220" height="28" rx="14" fill="#06B6D4" opacity=".16"/>
  <text x="118" y="798" font-family="Inter, Arial, sans-serif" font-size="18" font-weight="700" fill="#06B6D4">Grounded project visual</text>
</svg>