<?xml version="1.0" encoding="UTF-8"?>
<svg xmlns="http://www.w3.org/2000/svg" width="1400" height="900" viewBox="0 0 1400 900" role="img" aria-label="Zero-G Survival Gameplay Scene">
  <rect width="1400" height="900" fill="#F8FAFC"/>
  <rect x="70" y="70" width="1260" height="760" rx="34" fill="#FFFFFF" stroke="#D7E1EA" stroke-width="3"/>
  <rect x="70" y="70" width="1260" height="86" rx="34" fill="#0B1120"/>
  <circle cx="118" cy="113" r="12" fill="#F87171"/><circle cx="154" cy="113" r="12" fill="#FBBF24"/><circle cx="190" cy="113" r="12" fill="#34D399"/>
  <text x="700" y="124" text-anchor="middle" font-family="Inter, Arial, sans-serif" font-size="30" font-weight="800" fill="#FFFFFF">Zero-G Survival Gameplay Scene</text>
  
  <rect x="120" y="220" width="1160" height="480" rx="24" fill="#050816"/>
  <circle cx="210" cy="300" r="3" fill="#FFFFFF"/><circle cx="330" cy="520" r="4" fill="#FFFFFF"/><circle cx="620" cy="285" r="3" fill="#FFFFFF"/><circle cx="940" cy="610" r="4" fill="#FFFFFF"/><circle cx="1130" cy="360" r="3" fill="#FFFFFF"/>
  <image href="/project-assets/zerog-survival/space-man.png" x="225" y="330" width="180" height="160" preserveAspectRatio="xMidYMid meet"/>
  <image href="/project-assets/zerog-survival/big-meteor.png" x="790" y="285" width="165" height="165" preserveAspectRatio="xMidYMid meet"/>
  <image href="/project-assets/zerog-survival/big-meteor.png" x="1015" y="500" width="105" height="105" preserveAspectRatio="xMidYMid meet"/>
  <rect x="180" y="640" width="370" height="26" rx="13" fill="#1E293B"/><rect x="180" y="640" width="235" height="26" rx="13" fill="#06B6D4"/>
  <text x="180" y="625" font-family="Inter, Arial, sans-serif" font-size="24" font-weight="800" fill="#FFFFFF">Oxygen</text>
  <text x="930" y="645" font-family="Inter, Arial, sans-serif" font-size="24" font-weight="800" fill="#A5F3FC">Reach the station</text>
  <rect x="98" y="778" width="220" height="28" rx="14" fill="#06B6D4" opacity=".16"/>
  <text x="118" y="798" font-family="Inter, Arial, sans-serif" font-size="18" font-weight="700" fill="#06B6D4">Grounded project visual</text>
</svg>