<?xml version="1.0" encoding="UTF-8"?>
<svg xmlns="http://www.w3.org/2000/svg" width="1400" height="900" viewBox="0 0 1400 900" role="img" aria-label="Zero-G Survival Game Loop">
  <rect width="1400" height="900" fill="#F8FAFC"/>
  <rect x="70" y="70" width="1260" height="760" rx="34" fill="#FFFFFF" stroke="#D7E1EA" stroke-width="3"/>
  <rect x="70" y="70" width="1260" height="86" rx="34" fill="#0B1120"/>
  <circle cx="118" cy="113" r="12" fill="#F87171"/><circle cx="154" cy="113" r="12" fill="#FBBF24"/><circle cx="190" cy="113" r="12" fill="#34D399"/>
  <text x="700" y="124" text-anchor="middle" font-family="Inter, Arial, sans-serif" font-size="30" font-weight="800" fill="#FFFFFF">Zero-G Survival Game Loop</text>
  
  
  <rect x="115" y="310" width="210" height="140" rx="24" fill="#ECFEFF" stroke="#A5F3FC" stroke-width="2"/>
  <text x="143" y="355" font-family="Inter, Arial, sans-serif" font-size="25" font-weight="800" fill="#111827">Input</text>
  <text x="143" y="398" font-family="Inter, Arial, sans-serif" font-size="21" fill="#475569">Move</text><text x="143" y="432" font-family="Inter, Arial, sans-serif" font-size="21" fill="#475569">Navigate</text>
  
  <path d="M340 380 L445 380" stroke="#06B6D4" stroke-width="5" stroke-linecap="round"/>
  <path d="M427 367 L445 380 L427 393" fill="none" stroke="#06B6D4" stroke-width="5" stroke-linecap="round" stroke-linejoin="round"/>
  
  <rect x="460" y="310" width="210" height="140" rx="24" fill="#FFFFFF" stroke="#D7E1EA" stroke-width="2"/>
  <text x="488" y="355" font-family="Inter, Arial, sans-serif" font-size="25" font-weight="800" fill="#111827">Update</text>
  <text x="488" y="398" font-family="Inter, Arial, sans-serif" font-size="21" fill="#475569">Position</text><text x="488" y="432" font-family="Inter, Arial, sans-serif" font-size="21" fill="#475569">Oxygen</text>
  
  <path d="M685 380 L790 380" stroke="#06B6D4" stroke-width="5" stroke-linecap="round"/>
  <path d="M772 367 L790 380 L772 393" fill="none" stroke="#06B6D4" stroke-width="5" stroke-linecap="round" stroke-linejoin="round"/>
  
  <rect x="805" y="310" width="210" height="140" rx="24" fill="#FFFFFF" stroke="#D7E1EA" stroke-width="2"/>
  <text x="833" y="355" font-family="Inter, Arial, sans-serif" font-size="25" font-weight="800" fill="#111827">Hazards</text>
  <text x="833" y="398" font-family="Inter, Arial, sans-serif" font-size="21" fill="#475569">Asteroids</text><text x="833" y="432" font-family="Inter, Arial, sans-serif" font-size="21" fill="#475569">Collisions</text>
  
  <path d="M1030 380 L1135 380" stroke="#06B6D4" stroke-width="5" stroke-linecap="round"/>
  <path d="M1117 367 L1135 380 L1117 393" fill="none" stroke="#06B6D4" stroke-width="5" stroke-linecap="round" stroke-linejoin="round"/>
  
  <rect x="1150" y="310" width="145" height="140" rx="24" fill="#FFFFFF" stroke="#D7E1EA" stroke-width="2"/>
  <text x="1178" y="355" font-family="Inter, Arial, sans-serif" font-size="25" font-weight="800" fill="#111827">State</text>
  <text x="1178" y="398" font-family="Inter, Arial, sans-serif" font-size="21" fill="#475569">Win</text><text x="1178" y="432" font-family="Inter, Arial, sans-serif" font-size="21" fill="#475569">Lose</text>
  
  <rect x="285" y="555" width="830" height="120" rx="24" fill="#F8FAFC" stroke="#D7E1EA" stroke-width="2"/>
  <text x="313" y="600" font-family="Inter, Arial, sans-serif" font-size="25" font-weight="800" fill="#111827">Survival Pressure</text>
  <text x="313" y="643" font-family="Inter, Arial, sans-serif" font-size="21" fill="#475569">Limited oxygen and obstacle avoidance create the core player decision loop.</text>
  <rect x="98" y="778" width="220" height="28" rx="14" fill="#06B6D4" opacity=".16"/>
  <text x="118" y="798" font-family="Inter, Arial, sans-serif" font-size="18" font-weight="700" fill="#06B6D4">Grounded project visual</text>
</svg>